<svg id="Layer_2" data-name="Layer 2" xmlns="http://www.w3.org/2000/svg" viewBox="0 0 130.72 161.95"><defs><style>.cls-1{fill:#fff;}</style></defs><path class="cls-1" d="M580,304.86c.85.06-.83-.08,0,0Z" transform="translate(-467.33 -304.84)"/><path class="cls-1" d="M597.7,447.73c-5.24-15.38-19-26-43.1-35.61a159.27,159.27,0,0,0-25.37-19.19,93.24,93.24,0,0,0,2.3,12c-33.33-9.73-43.35-40-35.47-62.81a76.2,76.2,0,0,0-6.14,88.56,138.2,138.2,0,0,0-22.59,4.91c15.93,11.15,35,16.56,45.78,18.91-.39-8.39.86-19.3,7.79-28.3,0,0-.1.22-.27.64a28.65,28.65,0,0,0,22,39,76.7,76.7,0,0,0,16.1.85A75.82,75.82,0,0,0,595,455.29,6.45,6.45,0,0,0,597.7,447.73Zm-32-4.6a7.58,7.58,0,1,1,7.18-8A7.58,7.58,0,0,1,565.7,443.13Z" transform="translate(-467.33 -304.84)"/></svg>